<svg preserveAspectRatio="none" overflow="visible" style="display: block;" width="34" height="34" viewBox="0 0 34 34" fill="none" xmlns="http://www.w3.org/2000/svg">
<g id="flowbite:server-solid">
<path id="Vector" fill-rule="evenodd" clip-rule="evenodd" d="M7.08333 7.08333C6.33189 7.08333 5.61122 7.38184 5.07986 7.9132C4.54851 8.44455 4.25 9.16522 4.25 9.91667V14.1667C4.25 14.5424 4.39926 14.9027 4.66493 15.1684C4.93061 15.4341 5.29094 15.5833 5.66667 15.5833H28.3333C28.7091 15.5833 29.0694 15.4341 29.3351 15.1684C29.6007 14.9027 29.75 14.5424 29.75 14.1667V9.91667C29.75 9.16522 29.4515 8.44455 28.9201 7.9132C28.3888 7.38184 27.6681 7.08333 26.9167 7.08333H7.08333ZM19.8333 9.91667C19.4576 9.91667 19.0973 10.0659 18.8316 10.3316C18.5659 10.5973 18.4167 10.9576 18.4167 11.3333C18.4167 11.7091 18.5659 12.0694 18.8316 12.3351C19.0973 12.6007 19.4576 12.75 19.8333 12.75H19.8475C20.2232 12.75 20.5836 12.6007 20.8492 12.3351C21.1149 12.0694 21.2642 11.7091 21.2642 11.3333C21.2642 10.9576 21.1149 10.5973 20.8492 10.3316C20.5836 10.0659 20.2232 9.91667 19.8475 9.91667H19.8333ZM24.0833 9.91667C23.7076 9.91667 23.3473 10.0659 23.0816 10.3316C22.8159 10.5973 22.6667 10.9576 22.6667 11.3333C22.6667 11.7091 22.8159 12.0694 23.0816 12.3351C23.3473 12.6007 23.7076 12.75 24.0833 12.75H24.0975C24.4732 12.75 24.8336 12.6007 25.0992 12.3351C25.3649 12.0694 25.5142 11.7091 25.5142 11.3333C25.5142 10.9576 25.3649 10.5973 25.0992 10.3316C24.8336 10.0659 24.4732 9.91667 24.0975 9.91667H24.0833ZM4.25 24.0833V19.8333C4.25 19.4576 4.39926 19.0973 4.66493 18.8316C4.93061 18.5659 5.29094 18.4167 5.66667 18.4167H28.3333C28.7091 18.4167 29.0694 18.5659 29.3351 18.8316C29.6007 19.0973 29.75 19.4576 29.75 19.8333V24.0833C29.75 24.8348 29.4515 25.5554 28.9201 26.0868C28.3888 26.6182 27.6681 26.9167 26.9167 26.9167H7.08333C6.33189 26.9167 5.61122 26.6182 5.07986 26.0868C4.54851 25.5554 4.25 24.8348 4.25 24.0833ZM19.8333 21.25C19.4576 21.25 19.0973 21.3993 18.8316 21.6649C18.5659 21.9306 18.4167 22.2909 18.4167 22.6667C18.4167 23.0424 18.5659 23.4027 18.8316 23.6684C19.0973 23.9341 19.4576 24.0833 19.8333 24.0833H19.8475C20.2232 24.0833 20.5836 23.9341 20.8492 23.6684C21.1149 23.4027 21.2642 23.0424 21.2642 22.6667C21.2642 22.2909 21.1149 21.9306 20.8492 21.6649C20.5836 21.3993 20.2232 21.25 19.8475 21.25H19.8333ZM24.0833 21.25C23.7076 21.25 23.3473 21.3993 23.0816 21.6649C22.8159 21.9306 22.6667 22.2909 22.6667 22.6667C22.6667 23.0424 22.8159 23.4027 23.0816 23.6684C23.3473 23.9341 23.7076 24.0833 24.0833 24.0833H24.0975C24.4732 24.0833 24.8336 23.9341 25.0992 23.6684C25.3649 23.4027 25.5142 23.0424 25.5142 22.6667C25.5142 22.2909 25.3649 21.9306 25.0992 21.6649C24.8336 21.3993 24.4732 21.25 24.0975 21.25H24.0833Z" fill="#0C97D6"/>
</g>
</svg>
