<svg preserveAspectRatio="none" overflow="visible" style="display: block;" width="34" height="34" viewBox="0 0 34 34" fill="none" xmlns="http://www.w3.org/2000/svg">
<g id="material-symbols:wifi" clip-path="url(#clip0_0_226)">
<path id="Vector" d="M14.4854 28.7229C13.8007 28.0382 13.4583 27.2 13.4583 26.2083C13.4583 25.2167 13.8007 24.3785 14.4854 23.6938C15.1701 23.009 16.0083 22.6667 17 22.6667C17.9917 22.6667 18.8299 23.009 19.5146 23.6938C20.1993 24.3785 20.5417 25.2167 20.5417 26.2083C20.5417 27.2 20.1993 28.0382 19.5146 28.7229C18.8299 29.4076 17.9917 29.75 17 29.75C16.0083 29.75 15.1701 29.4076 14.4854 28.7229ZM8.99583 21.7458L6.02083 18.7C7.41389 17.3069 9.04919 16.2034 10.9267 15.3892C12.8043 14.5751 14.8287 14.1676 17 14.1667C19.1713 14.1657 21.1962 14.5789 23.0747 15.4063C24.9532 16.2336 26.588 17.3551 27.9792 18.7708L25.0042 21.7458C23.9653 20.7069 22.7611 19.8924 21.3917 19.3021C20.0222 18.7118 18.5583 18.4167 17 18.4167C15.4417 18.4167 13.9778 18.7118 12.6083 19.3021C11.2389 19.8924 10.0347 20.7069 8.99583 21.7458ZM2.975 15.725L4.76837e-07 12.75C2.17222 10.5306 4.71042 8.79514 7.61458 7.54375C10.5188 6.29236 13.6472 5.66667 17 5.66667C20.3528 5.66667 23.4812 6.29236 26.3854 7.54375C29.2896 8.79514 31.8278 10.5306 34 12.75L31.025 15.725C29.2069 13.9069 27.0999 12.4846 24.7038 11.458C22.3078 10.4314 19.7398 9.91761 17 9.91667C14.2602 9.91572 11.6927 10.4295 9.29758 11.458C6.90247 12.4865 4.79494 13.9088 2.975 15.725Z" fill="#0C97D6"/>
<path id="Vector_2" d="M7.08333 29.75C6.30417 29.75 5.63739 29.4728 5.083 28.9184C4.52861 28.364 4.25094 27.6968 4.25 26.9167V21.25C4.25 20.4708 4.52767 19.8041 5.083 19.2497C5.63833 18.6953 6.30511 18.4176 7.08333 18.4167H21.25V12.75H24.0833V18.4167H26.9167C27.6958 18.4167 28.3631 18.6943 28.9184 19.2497C29.4737 19.805 29.7509 20.4718 29.75 21.25V26.9167C29.75 27.6958 29.4728 28.3631 28.9184 28.9184C28.364 29.4737 27.6968 29.7509 26.9167 29.75H7.08333ZM10.9268 25.0934C11.1978 24.8214 11.3333 24.4847 11.3333 24.0833C11.3333 23.6819 11.1973 23.3457 10.9253 23.0747C10.6533 22.8036 10.3171 22.6676 9.91667 22.6667C9.51622 22.6657 9.18 22.8017 8.908 23.0747C8.636 23.3476 8.5 23.6838 8.5 24.0833C8.5 24.4828 8.636 24.8195 8.908 25.0934C9.18 25.3673 9.51622 25.5028 9.91667 25.5C10.3171 25.4972 10.6538 25.3626 10.9268 25.0934ZM15.8851 25.092C16.1561 24.8209 16.2917 24.4847 16.2917 24.0833C16.2917 23.6819 16.1557 23.3457 15.8837 23.0747C15.6117 22.8036 15.2754 22.6676 14.875 22.6667C14.4746 22.6657 14.1383 22.8017 13.8663 23.0747C13.5943 23.3476 13.4583 23.6838 13.4583 24.0833C13.4583 24.4828 13.5943 24.8195 13.8663 25.0934C14.1383 25.3673 14.4746 25.5028 14.875 25.5C15.2754 25.4972 15.6121 25.3612 15.8851 25.092ZM20.8434 25.092C21.1145 24.8219 21.25 24.4857 21.25 24.0833C21.25 23.681 21.114 23.3448 20.842 23.0747C20.57 22.8046 20.2338 22.6686 19.8333 22.6667C19.4329 22.6648 19.0967 22.8008 18.8247 23.0747C18.5527 23.3486 18.4167 23.6848 18.4167 24.0833C18.4167 24.4819 18.5527 24.8186 18.8247 25.0934C19.0967 25.3682 19.4329 25.5038 19.8333 25.5C20.2338 25.4962 20.5705 25.3602 20.8434 25.092ZM20.1875 11.6875L18.1333 9.63333C18.7472 9.06667 19.4319 8.61806 20.1875 8.2875C20.9431 7.95694 21.7694 7.79167 22.6667 7.79167C23.5639 7.79167 24.3903 7.95694 25.1458 8.2875C25.9014 8.61806 26.5861 9.06667 27.2 9.63333L25.1458 11.6875C24.8153 11.3569 24.4432 11.0972 24.0295 10.9083C23.6158 10.7194 23.1616 10.625 22.6667 10.625C22.1718 10.625 21.717 10.7194 21.3024 10.9083C20.8878 11.0972 20.5162 11.3569 20.1875 11.6875ZM16.6458 8.14583L14.6625 6.1625C15.7014 5.12361 16.9056 4.30903 18.275 3.71875C19.6444 3.12847 21.1083 2.83333 22.6667 2.83333C24.225 2.83333 25.6889 3.12847 27.0583 3.71875C28.4278 4.30903 29.6319 5.12361 30.6708 6.1625L28.6875 8.14583C27.9083 7.36667 27.0054 6.75892 25.9788 6.32258C24.9522 5.88625 23.8482 5.66761 22.6667 5.66667C21.4852 5.66572 20.3816 5.88436 19.3559 6.32258C18.3303 6.76081 17.4269 7.36856 16.6458 8.14583Z" fill="#0C97D6"/>
</g>
<defs>
<clipPath id="clip0_0_226">
<rect width="34" height="34" fill="white"/>
</clipPath>
</defs>
</svg>
